<mxfile host="app.diagrams.net" agent="Mozilla/5.0 (Windows NT 10.0; Win64; x64) AppleWebKit/537.36 (KHTML, like Gecko) Chrome/128.0.0.0 Safari/537.36 Edg/128.0.0.0" version="24.7.7">
  <diagram name="Page-1" id="Qm49Ly96IAzFYvibLxt6">
    <mxGraphModel dx="1783" dy="546" grid="1" gridSize="10" guides="1" tooltips="1" connect="1" arrows="1" fold="1" page="1" pageScale="1" pageWidth="827" pageHeight="1169" background="none" math="0" shadow="1">
      <root>
        <mxCell id="0" />
        <mxCell id="1" parent="0" />
        <mxCell id="2QvSDlSOdOQkuunxi8Gd-39" value="" style="shape=table;html=1;whiteSpace=wrap;startSize=0;container=1;collapsible=0;childLayout=tableLayout;" parent="1" vertex="1">
          <mxGeometry x="-540" y="210" width="320" height="110" as="geometry" />
        </mxCell>
        <mxCell id="2QvSDlSOdOQkuunxi8Gd-40" value="" style="shape=partialRectangle;html=1;whiteSpace=wrap;collapsible=0;dropTarget=0;pointerEvents=0;fillColor=none;top=0;left=0;bottom=0;right=0;points=[[0,0.5],[1,0.5]];portConstraint=eastwest;" parent="2QvSDlSOdOQkuunxi8Gd-39" vertex="1">
          <mxGeometry width="320" height="28" as="geometry" />
        </mxCell>
        <mxCell id="2QvSDlSOdOQkuunxi8Gd-41" value="Projet" style="shape=partialRectangle;html=1;whiteSpace=wrap;connectable=0;overflow=hidden;fillColor=none;top=0;left=0;bottom=0;right=0;" parent="2QvSDlSOdOQkuunxi8Gd-40" vertex="1">
          <mxGeometry width="100" height="28" as="geometry">
            <mxRectangle width="100" height="28" as="alternateBounds" />
          </mxGeometry>
        </mxCell>
        <mxCell id="2QvSDlSOdOQkuunxi8Gd-42" value="ProjetDev - Pac Man" style="shape=partialRectangle;html=1;whiteSpace=wrap;connectable=0;overflow=hidden;fillColor=none;top=0;left=0;bottom=0;right=0;" parent="2QvSDlSOdOQkuunxi8Gd-40" vertex="1">
          <mxGeometry x="100" width="220" height="28" as="geometry">
            <mxRectangle width="220" height="28" as="alternateBounds" />
          </mxGeometry>
        </mxCell>
        <mxCell id="2QvSDlSOdOQkuunxi8Gd-43" value="" style="shape=partialRectangle;html=1;whiteSpace=wrap;collapsible=0;dropTarget=0;pointerEvents=0;fillColor=none;top=0;left=0;bottom=0;right=0;points=[[0,0.5],[1,0.5]];portConstraint=eastwest;" parent="2QvSDlSOdOQkuunxi8Gd-39" vertex="1">
          <mxGeometry y="28" width="320" height="27" as="geometry" />
        </mxCell>
        <mxCell id="2QvSDlSOdOQkuunxi8Gd-44" value="Titre" style="shape=partialRectangle;html=1;whiteSpace=wrap;connectable=0;overflow=hidden;fillColor=none;top=0;left=0;bottom=0;right=0;" parent="2QvSDlSOdOQkuunxi8Gd-43" vertex="1">
          <mxGeometry width="100" height="27" as="geometry">
            <mxRectangle width="100" height="27" as="alternateBounds" />
          </mxGeometry>
        </mxCell>
        <mxCell id="2QvSDlSOdOQkuunxi8Gd-45" value="MCD" style="shape=partialRectangle;html=1;whiteSpace=wrap;connectable=0;overflow=hidden;fillColor=none;top=0;left=0;bottom=0;right=0;" parent="2QvSDlSOdOQkuunxi8Gd-43" vertex="1">
          <mxGeometry x="100" width="220" height="27" as="geometry">
            <mxRectangle width="220" height="27" as="alternateBounds" />
          </mxGeometry>
        </mxCell>
        <mxCell id="2QvSDlSOdOQkuunxi8Gd-46" value="" style="shape=partialRectangle;html=1;whiteSpace=wrap;collapsible=0;dropTarget=0;pointerEvents=0;fillColor=none;top=0;left=0;bottom=0;right=0;points=[[0,0.5],[1,0.5]];portConstraint=eastwest;" parent="2QvSDlSOdOQkuunxi8Gd-39" vertex="1">
          <mxGeometry y="55" width="320" height="28" as="geometry" />
        </mxCell>
        <mxCell id="2QvSDlSOdOQkuunxi8Gd-47" value="Auteur" style="shape=partialRectangle;html=1;whiteSpace=wrap;connectable=0;overflow=hidden;fillColor=none;top=0;left=0;bottom=0;right=0;" parent="2QvSDlSOdOQkuunxi8Gd-46" vertex="1">
          <mxGeometry width="100" height="28" as="geometry">
            <mxRectangle width="100" height="28" as="alternateBounds" />
          </mxGeometry>
        </mxCell>
        <mxCell id="2QvSDlSOdOQkuunxi8Gd-48" value="Christophe &amp;amp; Zachary" style="shape=partialRectangle;html=1;whiteSpace=wrap;connectable=0;overflow=hidden;fillColor=none;top=0;left=0;bottom=0;right=0;" parent="2QvSDlSOdOQkuunxi8Gd-46" vertex="1">
          <mxGeometry x="100" width="220" height="28" as="geometry">
            <mxRectangle width="220" height="28" as="alternateBounds" />
          </mxGeometry>
        </mxCell>
        <mxCell id="2QvSDlSOdOQkuunxi8Gd-49" value="" style="shape=partialRectangle;html=1;whiteSpace=wrap;collapsible=0;dropTarget=0;pointerEvents=0;fillColor=none;top=0;left=0;bottom=0;right=0;points=[[0,0.5],[1,0.5]];portConstraint=eastwest;" parent="2QvSDlSOdOQkuunxi8Gd-39" vertex="1">
          <mxGeometry y="83" width="320" height="27" as="geometry" />
        </mxCell>
        <mxCell id="2QvSDlSOdOQkuunxi8Gd-50" value="Version" style="shape=partialRectangle;html=1;whiteSpace=wrap;connectable=0;overflow=hidden;fillColor=none;top=0;left=0;bottom=0;right=0;" parent="2QvSDlSOdOQkuunxi8Gd-49" vertex="1">
          <mxGeometry width="100" height="27" as="geometry">
            <mxRectangle width="100" height="27" as="alternateBounds" />
          </mxGeometry>
        </mxCell>
        <mxCell id="2QvSDlSOdOQkuunxi8Gd-51" value="1" style="shape=partialRectangle;html=1;whiteSpace=wrap;connectable=0;overflow=hidden;fillColor=none;top=0;left=0;bottom=0;right=0;" parent="2QvSDlSOdOQkuunxi8Gd-49" vertex="1">
          <mxGeometry x="100" width="220" height="27" as="geometry">
            <mxRectangle width="220" height="27" as="alternateBounds" />
          </mxGeometry>
        </mxCell>
        <mxCell id="jb4O1xx5NTT1vo8NRB_P-17" value="&lt;div style=&quot;box-sizing: border-box ; width: 100% ; padding: 2px&quot;&gt;&lt;br&gt;&lt;/div&gt;" style="verticalAlign=top;align=center;overflow=fill;html=1;rounded=0;shadow=0;comic=0;labelBackgroundColor=none;strokeColor=#000000;strokeWidth=1;fillColor=#ffffff;fontFamily=Verdana;fontSize=12;fontColor=#000000;" parent="1" vertex="1">
          <mxGeometry x="-480" y="40" width="200" height="120" as="geometry" />
        </mxCell>
        <mxCell id="jb4O1xx5NTT1vo8NRB_P-18" value="RÃ©sultats" style="rounded=0;whiteSpace=wrap;html=1;" parent="1" vertex="1">
          <mxGeometry x="-480" y="40" width="200" height="20" as="geometry" />
        </mxCell>
        <mxCell id="jb4O1xx5NTT1vo8NRB_P-19" value="Score&lt;div&gt;Pseudo&lt;/div&gt;" style="text;html=1;strokeColor=none;fillColor=none;align=left;verticalAlign=top;whiteSpace=wrap;rounded=0;" parent="1" vertex="1">
          <mxGeometry x="-470" y="65" width="99" height="60" as="geometry" />
        </mxCell>
        <mxCell id="jb4O1xx5NTT1vo8NRB_P-20" value="nombre&lt;div&gt;Texte&lt;/div&gt;" style="text;html=1;strokeColor=none;fillColor=none;align=left;verticalAlign=top;whiteSpace=wrap;rounded=0;" parent="1" vertex="1">
          <mxGeometry x="-371" y="65" width="81" height="50" as="geometry" />
        </mxCell>
      </root>
    </mxGraphModel>
  </diagram>
</mxfile>
